HIERARCHY
ROOT hip
{
  OFFSET 0 90.174 2.4664
  CHANNELS 6 Xposition Yposition Zposition Zrotation Xrotation Yrotation
  JOINT abdomen
  {
    OFFSET 0 -1.186 -1.5018
    CHANNELS 6 Xposition Yposition Zposition Zrotation Xrotation Yrotation
    JOINT abdomen2
    {
      OFFSET 0 9.964 0.2134
      CHANNELS 6 Xposition Yposition Zposition Zrotation Xrotation Yrotation
      JOINT chest
      {
        OFFSET 0 13.134 -3.2573
        CHANNELS 6 Xposition Yposition Zposition Zrotation Xrotation Yrotation
        JOINT neck
        {
          OFFSET 0 20.686 -1.6905
          CHANNELS 6 Xposition Yposition Zposition Zrotation Xrotation Yrotation
          JOINT head
          {
            OFFSET 0 7.238 -0.1237
            CHANNELS 6 Xposition Yposition Zposition Zrotation Xrotation Yrotation
            End Site
            {
              OFFSET 0 0 0
            }
          }
        }
        JOINT lCollar
        {
          OFFSET 1.7069 20.075 5.0056
          CHANNELS 6 Xposition Yposition Zposition Zrotation Xrotation Yrotation
          JOINT lShldr
          {
            OFFSET 13.6458 -0.047 -4.849
            CHANNELS 6 Xposition Yposition Zposition Zrotation Xrotation Yrotation
            JOINT lForeArm
            {
              OFFSET 28.3255 -0.9759 2.2888
              CHANNELS 6 Xposition Yposition Zposition Zrotation Xrotation Yrotation
              JOINT lHand
              {
                OFFSET 22.1583 -0.53 10.8316
                CHANNELS 6 Xposition Yposition Zposition Zrotation Xrotation Yrotation
                JOINT lThumb1
                {
                  OFFSET 0.786 0.112 2.5817
                  CHANNELS 6 Xposition Yposition Zposition Zrotation Xrotation Yrotation
                  JOINT lThumb2
                  {
                    OFFSET 0.3601 -0.878 4.2331
                    CHANNELS 6 Xposition Yposition Zposition Zrotation Xrotation Yrotation
                    JOINT lThumb2_End
                    {
                      OFFSET 1.8127 -1.216 2.2227
                      CHANNELS 6 Xposition Yposition Zposition Zrotation Xrotation Yrotation
                      End Site
                      {
                        OFFSET 0.0181 -0.0122 0.0222
                      }
                    }
                  }
                }
                JOINT lCarpal1
                {
                  OFFSET 0.9571 1.114 1.7695
                  CHANNELS 6 Xposition Yposition Zposition Zrotation Xrotation Yrotation
                  JOINT lIndex1
                  {
                    OFFSET 4.1246 0.487 4.1451
                    CHANNELS 6 Xposition Yposition Zposition Zrotation Xrotation Yrotation
                    JOINT lIndex2
                    {
                      OFFSET 3.4052 -1.454 2.7682
                      CHANNELS 6 Xposition Yposition Zposition Zrotation Xrotation Yrotation
                      JOINT lIndex2_End
                      {
                        OFFSET 1.4531 -1.795 1.2713
                        CHANNELS 6 Xposition Yposition Zposition Zrotation Xrotation Yrotation
                        End Site
                        {
                          OFFSET 0.0145 -0.0179 0.0127
                        }
                      }
                    }
                  }
                  JOINT lMid1
                  {
                    OFFSET 5.6954 0.21 2.1184
                    CHANNELS 6 Xposition Yposition Zposition Zrotation Xrotation Yrotation
                    JOINT lMid2
                    {
                      OFFSET 3.9766 -1.54 2.3863
                      CHANNELS 6 Xposition Yposition Zposition Zrotation Xrotation Yrotation
                      JOINT lMid2_End
                      {
                        OFFSET 1.4042 -1.926 1.125
                        CHANNELS 6 Xposition Yposition Zposition Zrotation Xrotation Yrotation
                        End Site
                        {
                          OFFSET 0.014 -0.0193 0.0113
                        }
                      }
                    }
                  }
                }
                JOINT lCarpal2
                {
                  OFFSET 2.0956 0.66 -0.3894
                  CHANNELS 6 Xposition Yposition Zposition Zrotation Xrotation Yrotation
                  JOINT lRing1
                  {
                    OFFSET 5.0395 -0.09 2.4971
                    CHANNELS 6 Xposition Yposition Zposition Zrotation Xrotation Yrotation
                    JOINT lRing2
                    {
                      OFFSET 3.7921 -1.552 1.4806
                      CHANNELS 6 Xposition Yposition Zposition Zrotation Xrotation Yrotation
                      JOINT lRing2_End
                      {
                        OFFSET 1.4655 -1.808 0.9609
                        CHANNELS 6 Xposition Yposition Zposition Zrotation Xrotation Yrotation
                        End Site
                        {
                          OFFSET 0.0147 -0.0181 0.0096
                        }
                      }
                    }
                  }
                  JOINT lPinky1
                  {
                    OFFSET 4.9141 -1.269 0.3591
                    CHANNELS 6 Xposition Yposition Zposition Zrotation Xrotation Yrotation
                    JOINT lPinky2
                    {
                      OFFSET 3.1477 -1.685 0.8462
                      CHANNELS 6 Xposition Yposition Zposition Zrotation Xrotation Yrotation
                      JOINT lPinky2_End
                      {
                        OFFSET 0.8055 -1.585 0.7955
                        CHANNELS 6 Xposition Yposition Zposition Zrotation Xrotation Yrotation
                        End Site
                        {
                          OFFSET 0.0081 -0.0158 0.008
                        }
                      }
                    }
                  }
                }
              }
            }
          }
        }
        JOINT rCollar
        {
          OFFSET -1.7069 20.075 5.0056
          CHANNELS 6 Xposition Yposition Zposition Zrotation Xrotation Yrotation
          JOINT rShldr
          {
            OFFSET -13.6458 -0.047 -4.849
            CHANNELS 6 Xposition Yposition Zposition Zrotation Xrotation Yrotation
            JOINT rForeArm
            {
              OFFSET -28.3255 -0.9759 2.2888
              CHANNELS 6 Xposition Yposition Zposition Zrotation Xrotation Yrotation
              JOINT rHand
              {
                OFFSET -22.1583 -0.53 10.8316
                CHANNELS 6 Xposition Yposition Zposition Zrotation Xrotation Yrotation
                JOINT rThumb1
                {
                  OFFSET -0.786 0.112 2.5817
                  CHANNELS 6 Xposition Yposition Zposition Zrotation Xrotation Yrotation
                  JOINT rThumb2
                  {
                    OFFSET -0.3601 -0.878 4.2331
                    CHANNELS 6 Xposition Yposition Zposition Zrotation Xrotation Yrotation
                    JOINT rThumb2_End
                    {
                      OFFSET -1.8127 -1.216 2.2227
                      CHANNELS 6 Xposition Yposition Zposition Zrotation Xrotation Yrotation
                      End Site
                      {
                        OFFSET -0.0181 -0.0122 0.0222
                      }
                    }
                  }
                }
                JOINT rCarpal1
                {
                  OFFSET -0.9571 1.114 1.7695
                  CHANNELS 6 Xposition Yposition Zposition Zrotation Xrotation Yrotation
                  JOINT rIndex1
                  {
                    OFFSET -4.1246 0.487 4.1451
                    CHANNELS 6 Xposition Yposition Zposition Zrotation Xrotation Yrotation
                    JOINT rIndex2
                    {
                      OFFSET -3.4052 -1.454 2.7682
                      CHANNELS 6 Xposition Yposition Zposition Zrotation Xrotation Yrotation
                      JOINT rIndex2_End
                      {
                        OFFSET -1.4531 -1.795 1.2713
                        CHANNELS 6 Xposition Yposition Zposition Zrotation Xrotation Yrotation
                        End Site
                        {
                          OFFSET -0.0145 -0.018 0.0127
                        }
                      }
                    }
                  }
                  JOINT rMid1
                  {
                    OFFSET -5.6954 0.21 2.1184
                    CHANNELS 6 Xposition Yposition Zposition Zrotation Xrotation Yrotation
                    JOINT rMid2
                    {
                      OFFSET -3.9766 -1.54 2.3863
                      CHANNELS 6 Xposition Yposition Zposition Zrotation Xrotation Yrotation
                      JOINT rMid2_End
                      {
                        OFFSET -1.4042 -1.926 1.125
                        CHANNELS 6 Xposition Yposition Zposition Zrotation Xrotation Yrotation
                        End Site
                        {
                          OFFSET -0.014 -0.0193 0.0113
                        }
                      }
                    }
                  }
                }
                JOINT rCarpal2
                {
                  OFFSET -2.0956 0.66 -0.3894
                  CHANNELS 6 Xposition Yposition Zposition Zrotation Xrotation Yrotation
                  JOINT rRing1
                  {
                    OFFSET -5.0395 -0.09 2.4971
                    CHANNELS 6 Xposition Yposition Zposition Zrotation Xrotation Yrotation
                    JOINT rRing2
                    {
                      OFFSET -3.7921 -1.552 1.4806
                      CHANNELS 6 Xposition Yposition Zposition Zrotation Xrotation Yrotation
                      JOINT rRing2_End
                      {
                        OFFSET -1.4655 -1.808 0.9609
                        CHANNELS 6 Xposition Yposition Zposition Zrotation Xrotation Yrotation
                        End Site
                        {
                          OFFSET -0.0147 -0.0181 0.0096
                        }
                      }
                    }
                  }
                  JOINT rPinky1
                  {
                    OFFSET -4.9141 -1.269 0.3592
                    CHANNELS 6 Xposition Yposition Zposition Zrotation Xrotation Yrotation
                    JOINT rPinky2
                    {
                      OFFSET -3.1477 -1.685 0.8462
                      CHANNELS 6 Xposition Yposition Zposition Zrotation Xrotation Yrotation
                      JOINT rPinky2_End
                      {
                        OFFSET -0.8055 -1.585 0.7955
                        CHANNELS 6 Xposition Yposition Zposition Zrotation Xrotation Yrotation
                        End Site
                        {
                          OFFSET -0.0081 -0.0158 0.008
                        }
                      }
                    }
                  }
                }
              }
            }
          }
        }
      }
    }
  }
  JOINT lThigh
  {
    OFFSET 8.367 -8.2066 0.5982
    CHANNELS 6 Xposition Yposition Zposition Zrotation Xrotation Yrotation
    JOINT lShin
    {
      OFFSET 2.1923 -43.463 -0.4932
      CHANNELS 6 Xposition Yposition Zposition Zrotation Xrotation Yrotation
      JOINT lFoot
      {
        OFFSET 0.7333 -45.8593 -2.6451
        CHANNELS 6 Xposition Yposition Zposition Zrotation Xrotation Yrotation
        End Site
        {
          OFFSET 2.6618 -4.2699 12.3931
        }
      }
    }
  }
  JOINT rThigh
  {
    OFFSET -8.367 -8.2066 0.5982
    CHANNELS 6 Xposition Yposition Zposition Zrotation Xrotation Yrotation
    JOINT rShin
    {
      OFFSET -2.1923 -43.463 -0.4931
      CHANNELS 6 Xposition Yposition Zposition Zrotation Xrotation Yrotation
      JOINT rFoot
      {
        OFFSET -0.7333 -45.8593 -2.6451
        CHANNELS 6 Xposition Yposition Zposition Zrotation Xrotation Yrotation
        End Site
        {
          OFFSET -2.6618 -4.2699 12.3931
        }
      }
    }
  }
}
MOTION
Frames:	4
Frame Time:	0.0333333
-6.9993 6.18581 0.918858 -90.0106 -72.2369 -0.0108061 0 -1.186 -1.5018 0.132257 -4.99883 0.0889435 0 9.964 0.2134 0.2739 -9.99737 0.190636 0 13.134 -3.2573 0.273892 -9.99736 0.190636 0 20.686 -1.6905 -22.3844 -22.951 -9.89984 0 7.238 -0.1237 33.09 14.8002 -8.30308 1.7069 20.075 5.0056 -10.226 8.10613 0.983835 13.6458 -0.047 -4.849 -43.0646 -8.45368 -57.8261 28.3255 -0.9759 2.2888 -65.6607 10.4561 6.15056 22.1583 -0.53 10.8316 -28.2376 15.2417 -6.73092 0.786 0.112 2.5817 9.07298e-008 2.0569e-006 -2.04422e-006 0.3601 -0.878 4.2331 7.95139e-016 -1.59028e-015 -6.36111e-015 1.8127 -1.216 2.2227 1.59028e-015 -2.38542e-015 6.36111e-015 0.9571 1.114 1.7695 5.29669e-031 -2.38542e-015 1.27222e-014 4.1246 0.487 4.1451 9.07298e-008 2.0569e-006 -2.04422e-006 3.4052 -1.454 2.7682 -1.59028e-015 -1.59028e-015 -3.18055e-015 1.4531 -1.795 1.2713 1.59028e-015 -2.38542e-015 3.18055e-015 5.6954 0.21 2.1184 9.07298e-008 2.0569e-006 -2.04422e-006 3.9766 -1.54 2.3863 -1.59028e-015 -1.59028e-015 -3.18055e-015 1.4042 -1.926 1.125 1.59028e-015 -2.38542e-015 3.18055e-015 2.0956 0.66 -0.3894 5.29669e-031 -2.38542e-015 1.27222e-014 5.0395 -0.09 2.4971 9.07298e-008 2.0569e-006 -2.04422e-006 3.7921 -1.552 1.4806 -1.59028e-015 -1.59028e-015 -3.18055e-015 1.4655 -1.808 0.9609 1.59028e-015 -2.38542e-015 3.18055e-015 4.9141 -1.269 0.3591 9.07298e-008 2.0569e-006 -2.04422e-006 3.1477 -1.685 0.8462 -1.59028e-015 -1.59028e-015 -3.18055e-015 0.8055 -1.585 0.7955 1.59028e-015 -2.38542e-015 3.18055e-015 -1.7069 20.075 5.0056 -13.773 1.29634 -22.1979 -13.6458 -0.047 -4.849 56.0079 13.168 48.715 -28.3255 -0.9759 2.2888 56.6952 6.32828 52.5958 -22.1583 -0.53 10.8316 46.755 9.72102 5.9806 -0.786 0.112 2.5817 -1.9176e-007 -2.25565e-007 2.39654e-006 -0.3601 -0.878 4.2331 1.05687e-007 -1.08549e-006 -1.31105e-006 -1.8127 -1.216 2.2227 -1.05687e-007 1.08549e-006 1.31105e-006 -0.9571 1.114 1.7695 -8.85213e-017 0 2.48481e-017 -4.1246 0.487 4.1451 -1.9176e-007 -2.25565e-007 2.39654e-006 -3.4052 -1.454 2.7682 1.05687e-007 -1.08549e-006 -1.31105e-006 -1.4531 -1.795 1.2713 -1.05687e-007 1.08549e-006 1.31105e-006 -5.6954 0.21 2.1184 -1.9176e-007 -2.25565e-007 2.39654e-006 -3.9766 -1.54 2.3863 1.05687e-007 -1.08549e-006 -1.31105e-006 -1.4042 -1.926 1.125 -1.05687e-007 1.08549e-006 1.31105e-006 -2.0956 0.66 -0.3894 -8.85213e-017 0 2.48481e-017 -5.0395 -0.09 2.4971 -1.9176e-007 -2.25565e-007 2.39654e-006 -3.7921 -1.552 1.4806 1.05687e-007 -1.08549e-006 -1.31105e-006 -1.4655 -1.808 0.9609 -1.05687e-007 1.08549e-006 1.31105e-006 -4.9141 -1.269 0.3592 -1.9176e-007 -2.25565e-007 2.39654e-006 -3.1477 -1.685 0.8462 1.05687e-007 -1.08549e-006 -1.31105e-006 -0.8055 -1.585 0.7955 -1.05687e-007 1.08549e-006 1.31105e-006 8.367 -8.2066 0.5982 12.0098 -57.4552 17.483 2.1923 -43.463 -0.4932 -2.79004 37.1196 0.455834 0.7333 -45.8593 -2.6451 3.98913 53.6992 -4.22168 -8.367 -8.2066 0.5982 -33.8996 -51.1022 -37.7017 -2.1923 -43.463 -0.4931 74.4709 26.3968 -91.6435 -0.7333 -45.8593 -2.6451 -5.06949 35.1975 3.80388 
-7.09183 6.18569 0.888681 -90.0104 -71.9997 -0.0105864 0 -1.186 -1.5018 0.127619 -5.07087 0.0943803 -8.88178e-016 9.964 0.2134 0.265258 -10.1416 0.201322 -8.88178e-016 13.134 -3.2573 0.265235 -10.1416 0.201337 -8.88178e-016 20.686 -1.6905 -22.7902 -22.8161 -10.0615 0 7.238 -0.1237 33.2297 14.8095 -8.33859 1.7069 20.075 5.0056 -10.2543 8.33219 0.965414 13.6458 -0.047 -4.849 -43.0466 -8.45509 -57.7604 28.3255 -0.9759 2.2888 -65.5255 10.4206 6.18319 22.1583 -0.53 10.8316 -28.2376 15.2417 -6.73092 0.786 0.112 2.5817 1.11319e-014 -1.11319e-014 3.18055e-015 0.3601 -0.878 4.2331 9.54166e-015 -1.11319e-014 3.18055e-015 1.8127 -1.216 2.2227 8.74653e-015 -1.03368e-014 3.18055e-015 0.9571 1.114 1.7695 2.38542e-015 -1.59028e-015 3.18055e-015 4.1246 0.487 4.1451 1.27222e-014 -1.03368e-014 1.27222e-014 3.4052 -1.454 2.7682 1.03368e-014 -9.54166e-015 -3.18055e-015 1.4531 -1.795 1.2713 7.15625e-015 -1.03368e-014 -9.54166e-015 5.6954 0.21 2.1184 1.27222e-014 -1.03368e-014 1.27222e-014 3.9766 -1.54 2.3863 1.03368e-014 -9.54166e-015 -3.18055e-015 1.4042 -1.926 1.125 7.15625e-015 -1.03368e-014 -9.54166e-015 2.0956 0.66 -0.3894 2.38542e-015 -1.59028e-015 3.18055e-015 5.0395 -0.09 2.4971 1.27222e-014 -1.03368e-014 1.27222e-014 3.7921 -1.552 1.4806 1.03368e-014 -9.54166e-015 -3.18055e-015 1.4655 -1.808 0.9609 7.15625e-015 -1.03368e-014 -9.54166e-015 4.9141 -1.269 0.3591 1.27222e-014 -1.03368e-014 1.27222e-014 3.1477 -1.685 0.8462 1.03368e-014 -9.54166e-015 -3.18055e-015 0.8055 -1.585 0.7955 7.15625e-015 -1.03368e-014 -9.54166e-015 -1.7069 20.075 5.0056 -13.747 1.48035 -22.2869 -13.6458 -0.047 -4.849 56.0434 13.2288 48.7229 -28.3255 -0.9759 2.2888 56.7063 6.37115 52.5891 -22.1583 -0.53 10.8316 46.7574 9.78184 5.9699 -0.786 0.112 2.5817 8.82606e-007 1.62983e-006 3.02287e-007 -0.3601 -0.878 4.2331 8.07563e-016 0 -3.72721e-017 -1.8127 -1.216 2.2227 -2.1089e-007 2.17111e-006 2.62201e-006 -0.9571 1.114 1.7695 1.36199e-015 -1.59028e-015 -5.96354e-016 -4.1246 0.487 4.1451 8.82606e-007 1.62983e-006 3.02287e-007 -3.4052 -1.454 2.7682 2.48791e-015 1.59028e-015 -0 -1.4531 -1.795 1.2713 -2.1089e-007 2.17111e-006 2.62201e-006 -5.6954 0.21 2.1184 8.82606e-007 1.62983e-006 3.02287e-007 -3.9766 -1.54 2.3863 2.48791e-015 1.59028e-015 -0 -1.4042 -1.926 1.125 -2.1089e-007 2.17111e-006 2.62201e-006 -2.0956 0.66 -0.3894 1.36199e-015 -1.59028e-015 -5.96354e-016 -5.0395 -0.09 2.4971 8.82606e-007 1.62983e-006 3.02287e-007 -3.7921 -1.552 1.4806 2.48791e-015 1.59028e-015 -0 -1.4655 -1.808 0.9609 -2.1089e-007 2.17111e-006 2.62201e-006 -4.9141 -1.269 0.3592 8.82606e-007 1.62983e-006 3.02287e-007 -3.1477 -1.685 0.8462 2.48791e-015 1.59028e-015 -0 -0.8055 -1.585 0.7955 -2.1089e-007 2.17111e-006 2.62201e-006 8.367 -8.2066 0.5982 12.0771 -57.6543 17.551 2.1923 -43.463 -0.4932 -2.84341 36.9087 0.488868 0.7333 -45.8593 -2.6451 4.02289 53.8768 -4.22773 -8.367 -8.2066 0.5982 -34.0541 -51.2935 -37.9985 -2.1923 -43.463 -0.4931 74.3157 26.3624 -91.5796 -0.7333 -45.8593 -2.6451 -5.21729 35.2988 3.83923 
-6.9993 6.18581 0.918854 -90.0106 -72.2369 -0.0108061 0 -1.186 -1.5018 0.132261 -4.9989 0.0889099 0 9.964 0.2134 0.273893 -9.99736 0.190651 8.88178e-016 13.134 -3.2573 0.273891 -9.99738 0.190638 -8.88178e-016 20.686 -1.6905 -22.3844 -22.9504 -9.89984 0 7.238 -0.1237 33.09 14.8002 -8.30306 1.7069 20.075 5.0056 -10.2259 8.10616 0.983817 13.6458 -0.047 -4.849 -43.0646 -8.45369 -57.8261 28.3255 -0.9759 2.2888 -65.6607 10.4562 6.15056 22.1583 -0.53 10.8316 -28.2376 15.2417 -6.73093 0.786 0.112 2.5817 -1.32417e-031 -7.95139e-016 -9.54166e-015 0.3601 -0.878 4.2331 -7.95139e-016 -1.59028e-015 -0 1.8127 -1.216 2.2227 -7.95139e-016 0 -9.54166e-015 0.9571 1.114 1.7695 1.32417e-031 7.95139e-016 -9.54166e-015 4.1246 0.487 4.1451 1.59028e-015 -3.18055e-015 1.59028e-014 3.4052 -1.454 2.7682 -1.32417e-031 -7.95139e-016 -9.54166e-015 1.4531 -1.795 1.2713 -1.59028e-015 -7.95139e-016 -1.27222e-014 5.6954 0.21 2.1184 1.59028e-015 -3.18055e-015 1.59028e-014 3.9766 -1.54 2.3863 -1.32417e-031 -7.95139e-016 -9.54166e-015 1.4042 -1.926 1.125 -1.59028e-015 -7.95139e-016 -1.27222e-014 2.0956 0.66 -0.3894 1.32417e-031 7.95139e-016 -9.54166e-015 5.0395 -0.09 2.4971 1.59028e-015 -3.18055e-015 1.59028e-014 3.7921 -1.552 1.4806 -1.32417e-031 -7.95139e-016 -9.54166e-015 1.4655 -1.808 0.9609 -1.59028e-015 -7.95139e-016 -1.27222e-014 4.9141 -1.269 0.3591 1.59028e-015 -3.18055e-015 1.59028e-014 3.1477 -1.685 0.8462 -1.32417e-031 -7.95139e-016 -9.54166e-015 0.8055 -1.585 0.7955 -1.59028e-015 -7.95139e-016 -1.27222e-014 -1.7069 20.075 5.0056 -13.773 1.29638 -22.1979 -13.6458 -0.047 -4.849 56.0079 13.168 48.715 -28.3255 -0.9759 2.2888 56.6952 6.32827 52.5958 -22.1583 -0.53 10.8316 46.755 9.72102 5.9806 -0.786 0.112 2.5817 -2.39163e-016 -3.18055e-015 -2.11209e-016 -0.3601 -0.878 4.2331 3.01904e-015 -3.18055e-015 -9.93923e-017 -1.8127 -1.216 2.2227 -1.19581e-016 -1.59028e-015 1.2424e-017 -0.9571 1.114 1.7695 -2.48481e-016 0 -1.49089e-016 -4.1246 0.487 4.1451 1.96921e-015 -3.18055e-015 6.23687e-015 -3.4052 -1.454 2.7682 3.94463e-016 -6.36111e-015 -3.72721e-017 -1.4531 -1.795 1.2713 -1.1896e-015 -4.77083e-015 -9.93923e-017 -5.6954 0.21 2.1184 1.96921e-015 -3.18055e-015 6.23687e-015 -3.9766 -1.54 2.3863 3.94463e-016 -6.36111e-015 -3.72721e-017 -1.4042 -1.926 1.125 -1.1896e-015 -4.77083e-015 -9.93923e-017 -2.0956 0.66 -0.3894 -2.48481e-016 0 -1.49089e-016 -5.0395 -0.09 2.4971 1.96921e-015 -3.18055e-015 6.23687e-015 -3.7921 -1.552 1.4806 3.94463e-016 -6.36111e-015 -3.72721e-017 -1.4655 -1.808 0.9609 -1.1896e-015 -4.77083e-015 -9.93923e-017 -4.9141 -1.269 0.3592 1.96921e-015 -3.18055e-015 6.23687e-015 -3.1477 -1.685 0.8462 3.94463e-016 -6.36111e-015 -3.72721e-017 -0.8055 -1.585 0.7955 -1.1896e-015 -4.77083e-015 -9.93923e-017 8.367 -8.2066 0.5982 12.0098 -57.4552 17.483 2.1923 -43.463 -0.4932 -2.79004 37.1196 0.455823 0.7333 -45.8593 -2.6451 3.98915 53.6993 -4.22169 -8.367 -8.2066 0.5982 -33.8997 -51.1022 -37.7017 -2.1923 -43.463 -0.4931 74.4709 26.3968 -91.6435 -0.7333 -45.8593 -2.6451 -5.06949 35.1976 3.80388 
-6.79593 6.18599 0.985586 -90.0112 -72.759 -0.0112986 0 -1.186 -1.5018 0.142594 -4.84 0.0771883 0 9.964 0.2134 0.293346 -9.67969 0.16738 -8.88178e-016 13.134 -3.2573 0.293334 -9.67971 0.167387 8.88178e-016 20.686 -1.6905 -21.4882 -23.2469 -9.54193 0 7.238 -0.1237 32.7827 14.7797 -8.22493 1.7069 20.075 5.0056 -10.1631 7.60868 1.02445 13.6458 -0.047 -4.849 -43.1041 -8.45043 -57.9706 28.3255 -0.9759 2.2888 -65.9581 10.5343 6.07885 22.1583 -0.53 10.8316 -28.2376 15.2417 -6.73092 0.786 0.112 2.5817 -4.95381e-007 -1.1858e-006 -1.08758e-006 0.3601 -0.878 4.2331 1.32417e-031 7.95139e-016 -9.54166e-015 1.8127 -1.216 2.2227 -1.59028e-015 1.59028e-015 -9.54166e-015 0.9571 1.114 1.7695 1.59028e-015 2.38542e-015 6.36111e-015 4.1246 0.487 4.1451 -4.95381e-007 -1.1858e-006 -1.08758e-006 3.4052 -1.454 2.7682 -7.95139e-016 7.95139e-016 -9.54166e-015 1.4531 -1.795 1.2713 -1.59028e-015 1.59028e-015 -9.54166e-015 5.6954 0.21 2.1184 -4.95381e-007 -1.1858e-006 -1.08758e-006 3.9766 -1.54 2.3863 -7.95139e-016 7.95139e-016 -9.54166e-015 1.4042 -1.926 1.125 -1.59028e-015 1.59028e-015 -9.54166e-015 2.0956 0.66 -0.3894 1.59028e-015 2.38542e-015 6.36111e-015 5.0395 -0.09 2.4971 -4.95381e-007 -1.1858e-006 -1.08758e-006 3.7921 -1.552 1.4806 -7.95139e-016 7.95139e-016 -9.54166e-015 1.4655 -1.808 0.9609 -1.59028e-015 1.59028e-015 -9.54166e-015 4.9141 -1.269 0.3591 -4.95381e-007 -1.1858e-006 -1.08758e-006 3.1477 -1.685 0.8462 -7.95139e-016 7.95139e-016 -9.54166e-015 0.8055 -1.585 0.7955 -1.59028e-015 1.59028e-015 -9.54166e-015 -1.7069 20.075 5.0056 -13.8285 0.890865 -22.0028 -13.6458 -0.047 -4.849 55.9297 13.0342 48.698 -28.3255 -0.9759 2.2888 56.6706 6.234 52.6107 -22.1583 -0.53 10.8316 46.7497 9.58726 6.00421 -0.786 0.112 2.5817 2.01269e-015 -4.77083e-015 -7.45443e-017 -0.3601 -0.878 4.2331 4.31735e-016 -4.77083e-015 -0 -1.8127 -1.216 2.2227 -1.12438e-015 -4.77083e-015 -4.5969e-016 -0.9571 1.114 1.7695 4.06887e-016 -3.18055e-015 -1.73937e-016 -4.1246 0.487 4.1451 2.65564e-015 -3.18055e-015 6.32384e-015 -3.4052 -1.454 2.7682 2.62458e-015 -1.59028e-015 4.96962e-016 -1.4531 -1.795 1.2713 1.02188e-015 -1.59028e-015 3.23025e-016 -5.6954 0.21 2.1184 2.65564e-015 -3.18055e-015 6.32384e-015 -3.9766 -1.54 2.3863 2.62458e-015 -1.59028e-015 4.96962e-016 -1.4042 -1.926 1.125 1.02188e-015 -1.59028e-015 3.23025e-016 -2.0956 0.66 -0.3894 4.06887e-016 -3.18055e-015 -1.73937e-016 -5.0395 -0.09 2.4971 2.65564e-015 -3.18055e-015 6.32384e-015 -3.7921 -1.552 1.4806 2.62458e-015 -1.59028e-015 4.96962e-016 -1.4655 -1.808 0.9609 1.02188e-015 -1.59028e-015 3.23025e-016 -4.9141 -1.269 0.3592 2.65564e-015 -3.18055e-015 6.32384e-015 -3.1477 -1.685 0.8462 2.62458e-015 -1.59028e-015 4.96962e-016 -0.8055 -1.585 0.7955 1.02188e-015 -1.59028e-015 3.23025e-016 8.367 -8.2066 0.5982 11.8662 -57.0169 17.3379 2.1923 -43.463 -0.4932 -2.67269 37.5839 0.383015 0.7333 -45.8593 -2.6451 3.91629 53.3086 -4.20953 -8.367 -8.2066 0.5982 -33.5697 -50.6783 -37.0573 -2.1923 -43.463 -0.4931 74.8122 26.4718 -91.7847 -0.7333 -45.8593 -2.6451 -4.74524 34.9747 3.72702 
